<mxfile host="app.diagrams.net" modified="2023-08-16T09:09:34.387Z" agent="Mozilla/5.0 (Windows NT 10.0; Win64; x64) AppleWebKit/537.36 (KHTML, like Gecko) Chrome/115.0.0.0 Safari/537.36" version="21.6.8" etag="i6NUpuSlyFSesHeDnZpd" type="github">
  <diagram name="第 1 页" id="PkXWieMQO1Z7pc3jig3g">
    <mxGraphModel>
      <root>
        <mxCell id="0" />
        <mxCell id="1" parent="0" />
      </root>
    </mxGraphModel>
  </diagram>
</mxfile>
